<svg width="3590" height="1069" viewBox="0 0 3590 1069" fill="none" xmlns="http://www.w3.org/2000/svg">
<path opacity="0.25" d="M380.097 871.208C290.702 833.262 246.005 814.289 218.215 777.411C190.426 740.533 184.508 692.338 172.673 595.947L168.67 563.345C156.834 466.954 150.917 418.759 168.959 376.254C187.002 333.748 225.781 304.525 303.341 246.08L329.573 226.313C407.132 167.868 445.912 138.645 491.744 133.018C537.576 127.39 582.273 146.363 671.668 184.309L701.903 197.143C791.298 235.089 835.995 254.062 863.785 290.94C891.574 327.818 897.492 376.013 909.327 472.404L913.33 505.006C925.165 601.397 931.083 649.592 913.041 692.097C894.998 734.603 856.219 763.825 778.659 822.271L752.427 842.038C674.868 900.483 636.088 929.706 590.256 935.333C544.424 940.961 499.727 921.988 410.332 884.042L380.097 871.208Z" fill="url(#paint0_linear)" fill-opacity="0.55" stroke="white" stroke-opacity="0.2"/>
<path opacity="0.25" d="M336.594 819.705C260.237 770.119 222.058 745.325 202.405 706.753C182.752 668.181 185.134 622.721 189.899 531.801L191.511 501.05C196.275 410.129 198.658 364.669 222.235 328.363C245.813 292.057 286.374 271.39 367.496 230.056L394.933 216.076C476.055 174.743 516.616 154.076 559.846 156.341C603.077 158.607 641.256 183.4 717.613 232.987L743.438 249.759C819.795 299.345 857.974 324.139 877.627 362.711C897.28 401.282 894.898 446.743 890.133 537.663L888.521 568.414C883.756 659.335 881.374 704.795 857.796 741.101C834.219 777.407 793.658 798.074 712.536 839.408L685.099 853.388C603.977 894.721 563.416 915.388 520.185 913.122C476.954 910.857 438.776 886.063 362.419 836.477L336.594 819.705Z" fill="url(#paint1_linear)" fill-opacity="0.55" stroke="white" stroke-opacity="0.2"/>
<path opacity="0.25" d="M308.41 762.211C246.263 704.258 215.189 675.281 203.376 636.642C191.563 598.004 201.121 556.605 220.236 473.807L226.701 445.803C245.817 363.006 255.374 321.607 282.93 292.057C310.486 262.507 351.117 250.085 432.379 225.241L459.864 216.838C541.126 191.993 581.758 179.571 621.126 188.66C660.495 197.749 691.568 226.726 753.716 284.679L774.735 304.28C836.882 362.233 867.956 391.21 879.769 429.848C891.582 468.487 882.024 509.886 862.909 592.683L856.444 620.687C837.328 703.485 827.771 744.884 800.215 774.433C772.66 803.983 732.028 816.405 650.766 841.25L623.281 849.653C542.019 874.497 501.388 886.919 462.019 877.83C422.65 868.742 391.577 839.765 329.43 781.812L308.41 762.211Z" fill="url(#paint2_linear)" fill-opacity="0.55" stroke="white" stroke-opacity="0.2"/>
<path opacity="0.25" d="M290.306 705.018C242.819 642.001 219.076 610.493 214.504 573.254C209.931 536.016 225.347 499.699 256.178 427.066L266.605 402.5C297.436 329.867 312.852 293.55 342.815 270.971C372.779 248.392 411.937 243.584 490.255 233.968L516.744 230.715C595.061 221.099 634.22 216.291 668.756 230.951C703.291 245.61 727.035 277.119 774.522 340.136L790.583 361.449C838.069 424.466 861.813 455.975 866.385 493.213C870.957 530.452 855.542 566.769 824.711 639.402L814.283 663.968C783.452 736.601 768.037 772.918 738.073 795.497C708.11 818.076 668.951 822.884 590.634 832.5L564.145 835.752C485.827 845.369 446.668 850.177 412.133 835.517C377.597 820.858 353.854 789.349 306.367 726.332L290.306 705.018Z" fill="url(#paint3_linear)" fill-opacity="0.55" stroke="white" stroke-opacity="0.2"/>
<path opacity="0.25" d="M286.402 649.354C253.335 584.456 236.802 552.007 238.614 517.423C240.427 482.838 260.262 452.295 299.931 391.21L313.348 370.549C353.017 309.464 372.852 278.921 403.71 263.198C434.567 247.476 470.935 249.382 543.672 253.194L568.272 254.483C641.009 258.295 677.377 260.201 706.422 279.063C735.467 297.925 752 330.374 785.067 395.271L796.251 417.221C829.318 482.118 845.851 514.567 844.039 549.152C842.226 583.736 822.392 614.279 782.722 675.365L769.305 696.025C729.636 757.111 709.801 787.653 678.944 803.376C648.086 819.099 611.718 817.193 538.982 813.381L514.381 812.092C441.645 808.28 405.276 806.374 376.231 787.512C347.187 768.65 330.653 736.201 297.586 671.303L286.402 649.354Z" fill="url(#paint4_linear)" fill-opacity="0.55" stroke="white" stroke-opacity="0.2"/>
<path opacity="0.25" d="M292.243 597.857C272.723 534.008 262.962 502.083 270.104 471.151C277.245 440.218 300.012 415.803 345.547 366.973L360.948 350.458C406.482 301.628 429.25 277.213 459.609 267.932C489.968 258.65 522.495 266.159 587.55 281.179L609.553 286.258C674.609 301.278 707.136 308.787 730.354 330.438C753.571 352.089 763.332 384.013 782.852 447.862L789.455 469.458C808.975 533.307 818.736 565.231 811.594 596.164C804.453 627.096 781.686 651.511 736.151 700.341L720.75 716.856C675.216 765.686 652.448 790.101 622.089 799.383C591.73 808.665 559.203 801.155 494.148 786.136L472.145 781.056C407.089 766.037 374.562 758.527 351.344 736.876C328.126 715.226 318.366 683.301 298.845 619.452L292.243 597.857Z" fill="url(#paint5_linear)" fill-opacity="0.55" stroke="white" stroke-opacity="0.2"/>
<path opacity="0.25" d="M308.621 552.072C301.224 491.828 297.526 461.705 308.802 435.14C320.079 408.574 344.316 390.31 392.791 353.781L409.186 341.427C457.661 304.898 481.898 286.634 510.543 283.117C539.188 279.6 567.124 291.458 622.995 315.174L641.892 323.195C697.764 346.912 725.7 358.77 743.068 381.818C760.437 404.867 764.135 434.989 771.532 495.234L774.034 515.61C781.431 575.854 785.13 605.976 773.853 632.542C762.577 659.108 738.339 677.372 689.865 713.9L673.47 726.255C624.995 762.783 600.758 781.047 572.113 784.564C543.468 788.081 515.532 776.223 459.66 752.507L440.763 744.486C384.892 720.77 356.956 708.912 339.587 685.863C322.219 662.814 318.52 632.692 311.123 572.448L308.621 552.072Z" fill="url(#paint6_linear)" fill-opacity="0.55" stroke="white" stroke-opacity="0.2"/>
<path opacity="0.25" d="M331.457 513.75C334.316 459.198 335.746 431.922 349.892 410.138C364.039 388.354 388.375 375.954 437.048 351.154L453.511 342.766C502.184 317.966 526.52 305.566 552.459 306.925C578.397 308.285 601.305 323.161 647.119 352.913L662.614 362.975C708.428 392.727 731.335 407.603 743.127 430.747C754.919 453.89 753.49 481.166 750.631 535.718L749.664 554.169C746.805 608.721 745.375 635.997 731.229 657.781C717.082 679.565 692.746 691.965 644.073 716.765L627.61 725.153C578.937 749.953 554.601 762.353 528.662 760.994C502.724 759.634 479.817 744.758 434.002 715.006L418.507 704.943C372.693 675.191 349.786 660.315 337.994 637.172C326.202 614.029 327.631 586.753 330.49 532.201L331.457 513.75Z" fill="url(#paint7_linear)" fill-opacity="0.55" stroke="white" stroke-opacity="0.2"/>
<path opacity="0.25" d="M361.383 483.376C372.306 436.064 377.767 412.407 393.513 395.522C409.259 378.636 432.477 371.538 478.913 357.341L494.618 352.539C541.054 338.342 564.272 331.244 586.768 336.438C609.265 341.631 627.021 358.189 662.534 391.305L674.545 402.506C710.057 435.622 727.814 452.18 734.564 474.259C741.314 496.339 735.853 519.995 724.93 567.308L721.235 583.31C710.312 630.623 704.851 654.279 689.105 671.165C673.359 688.051 650.141 695.149 603.705 709.346L588 714.148C541.564 728.344 518.346 735.443 495.85 730.249C473.353 725.055 455.597 708.497 420.084 675.381L408.073 664.181C372.561 631.065 354.804 614.507 348.054 592.427C341.304 570.348 346.765 546.692 357.688 499.379L361.383 483.376Z" fill="url(#paint8_linear)" fill-opacity="0.55" stroke="white" stroke-opacity="0.2"/>
<path opacity="0.25" d="M393.504 464.135C410.105 425.025 418.406 405.47 434.54 393.312C450.674 381.154 471.76 378.565 513.931 373.387L528.194 371.636C570.365 366.458 591.45 363.869 610.046 371.763C628.643 379.656 641.427 396.622 666.997 430.554L675.645 442.031C701.215 475.963 714 492.929 716.462 512.981C718.924 533.032 710.623 552.587 694.022 591.698L688.407 604.926C671.806 644.036 663.505 663.591 647.371 675.749C631.237 687.907 610.152 690.496 567.981 695.674L553.717 697.425C511.546 702.603 490.461 705.192 471.865 697.298C453.269 689.405 440.484 672.439 414.914 638.506L406.266 627.03C380.696 593.098 367.911 576.131 365.449 556.08C362.987 536.028 371.288 516.473 387.889 477.363L393.504 464.135Z" fill="url(#paint9_linear)" fill-opacity="0.55" stroke="white" stroke-opacity="0.2"/>
<path opacity="0.25" d="M426.871 453.158C446.706 422.615 456.623 407.344 472.052 399.482C487.481 391.621 505.665 392.574 542.033 394.48L554.334 395.125C590.702 397.031 608.886 397.984 623.408 407.415C637.931 416.846 646.198 433.07 662.731 465.519L668.323 476.494C684.856 508.942 693.123 525.167 692.217 542.459C691.311 559.751 681.393 575.023 661.559 605.565L654.85 615.896C635.015 646.438 625.098 661.71 609.669 669.571C594.24 677.432 576.056 676.48 539.688 674.574L527.388 673.929C491.02 672.023 472.836 671.07 458.313 661.639C443.791 652.208 435.524 635.984 418.99 603.535L413.398 592.56C396.865 560.111 388.598 543.887 389.505 526.595C390.411 509.302 400.328 494.031 420.163 463.488L426.871 453.158Z" fill="url(#paint10_linear)" fill-opacity="0.55" stroke="white" stroke-opacity="0.2"/>
<path opacity="0.25" d="M458.996 451.252C479.694 429.056 490.043 417.959 503.842 413.74C517.642 409.521 532.427 412.934 561.998 419.761L571.999 422.07C601.57 428.897 616.355 432.311 626.908 442.152C637.462 451.993 641.898 466.504 650.771 495.527L653.772 505.343C662.645 534.365 667.082 548.876 663.836 562.936C660.59 576.996 650.241 588.094 629.544 610.29L622.543 617.797C601.846 639.992 591.497 651.09 577.697 655.309C563.898 659.527 549.112 656.114 519.542 649.287L509.541 646.978C479.97 640.151 465.185 636.738 454.631 626.897C444.078 617.055 439.641 602.544 430.768 573.522L427.767 563.706C418.894 534.684 414.458 520.172 417.704 506.112C420.95 492.052 431.299 480.954 451.996 458.759L458.996 451.252Z" fill="url(#paint11_linear)" fill-opacity="0.55" stroke="white" stroke-opacity="0.2"/>
<path opacity="0.25" d="M487.824 457.561C507.214 442.95 516.909 435.645 528.367 434.238C539.825 432.831 550.999 437.574 573.348 447.06L580.906 450.269C603.255 459.755 614.429 464.499 621.377 473.718C628.324 482.938 629.804 494.987 632.763 519.084L633.763 527.235C636.722 551.332 638.202 563.381 633.691 574.008C629.18 584.634 619.485 591.94 600.095 606.551L593.537 611.493C574.148 626.104 564.453 633.41 552.995 634.817C541.537 636.223 530.362 631.48 508.014 621.994L500.455 618.785C478.106 609.299 466.932 604.556 459.984 595.336C453.037 586.117 451.558 574.068 448.599 549.97L447.598 541.82C444.639 517.722 443.16 505.673 447.67 495.047C452.181 484.42 461.876 477.115 481.266 462.503L487.824 457.561Z" fill="url(#paint12_linear)" fill-opacity="0.55" stroke="white" stroke-opacity="0.2"/>
<path d="M1086.84 311.59H1168.36L1226.2 727.796H1229.58L1287.72 311.59H1368.93L1273.26 837H1182.21L1086.84 311.59ZM1504.6 841.614C1486.35 841.614 1470.15 838.23 1456 831.463C1442.05 824.695 1430.26 814.134 1420.62 799.778C1410.98 785.423 1403.7 767.068 1398.78 744.715C1393.86 722.156 1391.4 695.086 1391.4 663.504V583.523C1391.4 556.658 1393.35 533.689 1397.24 514.617C1401.34 495.34 1406.57 479.241 1412.93 466.321C1419.49 453.196 1426.98 442.84 1435.39 435.252C1444 427.664 1452.82 421.922 1461.84 418.025C1470.87 413.924 1479.79 411.36 1488.61 410.335C1497.63 409.104 1505.93 408.489 1513.52 408.489C1527.47 408.489 1540.9 410.643 1553.82 414.949C1566.74 419.051 1578.12 426.229 1587.97 436.482C1597.81 446.531 1605.6 460.066 1611.34 477.088C1617.29 494.109 1620.27 515.335 1620.27 540.765C1620.27 549.378 1619.96 558.094 1619.34 566.912C1618.93 575.73 1618.32 584.446 1617.5 593.06C1616.68 601.468 1615.55 609.671 1614.11 617.669C1612.88 625.667 1611.55 633.05 1610.11 639.817H1469.53V682.884C1469.53 701.341 1470.25 716.927 1471.69 729.642C1473.12 742.151 1475.48 752.303 1478.76 760.096C1482.25 767.684 1486.86 773.221 1492.6 776.707C1498.55 779.988 1505.93 781.629 1514.75 781.629C1519.47 781.629 1524.08 780.706 1528.6 778.86C1533.11 776.81 1537 773.528 1540.28 769.017C1543.77 764.505 1546.54 758.558 1548.59 751.175C1550.64 743.587 1551.67 734.256 1551.67 723.182V709.954H1616.57V726.258C1616.57 766.453 1606.94 795.779 1587.66 814.236C1568.59 832.488 1540.9 841.614 1504.6 841.614ZM1547.67 587.522C1547.87 585.267 1548.08 582.293 1548.28 578.602C1548.49 574.705 1548.59 570.706 1548.59 566.604C1548.8 562.503 1548.9 558.504 1548.9 554.607C1548.9 550.506 1548.9 547.02 1548.9 544.148C1548.9 516.258 1545.62 496.16 1539.05 483.855C1532.49 471.551 1522.75 465.398 1509.83 465.398C1503.06 465.398 1497.12 467.039 1491.99 470.32C1486.86 473.396 1482.66 478.729 1479.38 486.316C1476.1 493.699 1473.63 503.543 1471.99 515.848C1470.35 528.152 1469.53 543.431 1469.53 561.683V587.522H1547.67ZM1775.62 841.614C1757.37 841.614 1741.17 838.23 1727.02 831.463C1713.08 824.695 1701.28 814.134 1691.64 799.778C1682.01 785.423 1674.73 767.068 1669.8 744.715C1664.88 722.156 1662.42 695.086 1662.42 663.504V583.523C1662.42 556.658 1664.37 533.689 1668.27 514.617C1672.37 495.34 1677.6 479.241 1683.95 466.321C1690.52 453.196 1698 442.84 1706.41 435.252C1715.02 427.664 1723.84 421.922 1732.87 418.025C1741.89 413.924 1750.81 411.36 1759.63 410.335C1768.65 409.104 1776.96 408.489 1784.55 408.489C1798.49 408.489 1811.92 410.643 1824.84 414.949C1837.76 419.051 1849.14 426.229 1858.99 436.482C1868.83 446.531 1876.63 460.066 1882.37 477.088C1888.31 494.109 1891.29 515.335 1891.29 540.765C1891.29 549.378 1890.98 558.094 1890.37 566.912C1889.96 575.73 1889.34 584.446 1888.52 593.06C1887.7 601.468 1886.57 609.671 1885.14 617.669C1883.91 625.667 1882.57 633.05 1881.14 639.817H1740.56V682.884C1740.56 701.341 1741.27 716.927 1742.71 729.642C1744.14 742.151 1746.5 752.303 1749.78 760.096C1753.27 767.684 1757.88 773.221 1763.63 776.707C1769.57 779.988 1776.96 781.629 1785.78 781.629C1790.49 781.629 1795.11 780.706 1799.62 778.86C1804.13 776.81 1808.03 773.528 1811.31 769.017C1814.79 764.505 1817.56 758.558 1819.61 751.175C1821.66 743.587 1822.69 734.256 1822.69 723.182V709.954H1887.6V726.258C1887.6 766.453 1877.96 795.779 1858.68 814.236C1839.61 832.488 1811.92 841.614 1775.62 841.614ZM1818.69 587.522C1818.9 585.267 1819.1 582.293 1819.31 578.602C1819.51 574.705 1819.61 570.706 1819.61 566.604C1819.82 562.503 1819.92 558.504 1819.92 554.607C1819.92 550.506 1819.92 547.02 1819.92 544.148C1819.92 516.258 1816.64 496.16 1810.08 483.855C1803.51 471.551 1793.77 465.398 1780.85 465.398C1774.09 465.398 1768.14 467.039 1763.01 470.32C1757.88 473.396 1753.68 478.729 1750.4 486.316C1747.12 493.699 1744.66 503.543 1743.02 515.848C1741.38 528.152 1740.56 543.431 1740.56 561.683V587.522H1818.69ZM1944.52 277.444H2022.35V377.112L2018.35 449.71C2024.09 441.712 2030.24 435.149 2036.8 430.022C2043.57 424.69 2050.44 420.486 2057.41 417.41C2064.59 414.129 2071.77 411.873 2078.95 410.643C2086.33 409.207 2093.61 408.489 2100.79 408.489C2125.6 408.489 2144.67 417.205 2158 434.637C2171.54 451.863 2178.31 477.806 2178.31 512.464V837H2100.48V515.232C2100.48 496.57 2097.61 483.65 2091.87 476.473C2086.12 469.09 2077.72 465.398 2066.64 465.398C2058.85 465.398 2050.95 468.064 2042.96 473.396C2035.16 478.523 2028.29 485.701 2022.35 494.93V837H1944.52V277.444ZM2287.83 352.811C2273.48 352.811 2262.09 348.504 2253.69 339.891C2245.48 331.277 2241.38 318.665 2241.38 302.054C2241.38 292.825 2242.41 285.135 2244.46 278.982C2246.71 272.625 2249.79 267.601 2253.69 263.909C2257.79 260.013 2262.71 257.244 2268.45 255.604C2274.19 253.758 2280.76 252.835 2288.14 252.835C2303.52 252.835 2315.21 256.731 2323.21 264.524C2331.21 272.317 2335.2 284.827 2335.2 302.054C2335.2 318.05 2331.1 330.56 2322.9 339.583C2314.9 348.401 2303.21 352.811 2287.83 352.811ZM2247.53 413.411H2325.36V837H2247.53V413.411ZM2359.21 413.411H2436.73L2477.64 638.587L2487.79 728.719H2490.26L2501.95 638.587L2542.55 413.411H2617.61L2521.02 837H2454.57L2359.21 413.411ZM2752.67 841.614C2734.41 841.614 2718.21 838.23 2704.06 831.463C2690.12 824.695 2678.32 814.134 2668.69 799.778C2659.05 785.423 2651.77 767.068 2646.85 744.715C2641.92 722.156 2639.46 695.086 2639.46 663.504V583.523C2639.46 556.658 2641.41 533.689 2645.31 514.617C2649.41 495.34 2654.64 479.241 2661 466.321C2667.56 453.196 2675.04 442.84 2683.45 435.252C2692.07 427.664 2700.88 421.922 2709.91 418.025C2718.93 413.924 2727.85 411.36 2736.67 410.335C2745.69 409.104 2754 408.489 2761.59 408.489C2775.53 408.489 2788.96 410.643 2801.88 414.949C2814.8 419.051 2826.19 426.229 2836.03 436.482C2845.87 446.531 2853.67 460.066 2859.41 477.088C2865.36 494.109 2868.33 515.335 2868.33 540.765C2868.33 549.378 2868.02 558.094 2867.41 566.912C2867 575.73 2866.38 584.446 2865.56 593.06C2864.74 601.468 2863.61 609.671 2862.18 617.669C2860.95 625.667 2859.61 633.05 2858.18 639.817H2717.6V682.884C2717.6 701.341 2718.32 716.927 2719.75 729.642C2721.19 742.151 2723.54 752.303 2726.83 760.096C2730.31 767.684 2734.93 773.221 2740.67 776.707C2746.62 779.988 2754 781.629 2762.82 781.629C2767.53 781.629 2772.15 780.706 2776.66 778.86C2781.17 776.81 2785.07 773.528 2788.35 769.017C2791.84 764.505 2794.6 758.558 2796.65 751.175C2798.71 743.587 2799.73 734.256 2799.73 723.182V709.954H2864.64V726.258C2864.64 766.453 2855 795.779 2835.72 814.236C2816.65 832.488 2788.96 841.614 2752.67 841.614ZM2795.73 587.522C2795.94 585.267 2796.14 582.293 2796.35 578.602C2796.55 574.705 2796.65 570.706 2796.65 566.604C2796.86 562.503 2796.96 558.504 2796.96 554.607C2796.96 550.506 2796.96 547.02 2796.96 544.148C2796.96 516.258 2793.68 496.16 2787.12 483.855C2780.56 471.551 2770.82 465.398 2757.9 465.398C2751.13 465.398 2745.18 467.039 2740.05 470.32C2734.93 473.396 2730.72 478.729 2727.44 486.316C2724.16 493.699 2721.7 503.543 2720.06 515.848C2718.42 528.152 2717.6 543.431 2717.6 561.683V587.522H2795.73ZM2909.56 781.937C2909.56 760.198 2913.87 744.612 2922.48 735.179C2931.1 725.745 2942.79 721.028 2957.55 721.028C2972.93 721.028 2984.83 726.053 2993.23 736.102C3001.64 746.15 3005.85 761.429 3005.85 781.937C3005.85 800.804 3001.54 815.467 2992.93 825.926C2984.52 836.18 2972.62 841.307 2957.24 841.307C2942.68 841.307 2931.1 836.282 2922.48 826.233C2913.87 816.185 2909.56 801.419 2909.56 781.937ZM3121.83 841.614C3108.71 841.614 3097.02 839.051 3086.76 833.924C3076.71 828.592 3068.2 821.414 3061.23 812.391C3054.26 803.367 3048.93 792.703 3045.23 780.398C3041.75 767.889 3040 754.354 3040 739.793C3040 722.361 3042.16 706.878 3046.46 693.343C3050.77 679.808 3057.03 667.605 3065.23 656.736C3073.64 645.867 3083.99 636.023 3096.3 627.205C3108.6 618.182 3122.86 609.671 3139.06 601.673C3146.85 597.776 3155.57 593.88 3165.2 589.983C3175.05 585.882 3183.76 582.396 3191.35 579.524V523.538C3191.35 515.335 3191.04 507.747 3190.43 500.774C3189.81 493.597 3188.28 487.444 3185.82 482.317C3183.56 476.985 3180.07 472.884 3175.36 470.013C3170.64 466.937 3164.18 465.398 3155.98 465.398C3150.44 465.398 3145 466.424 3139.67 468.475C3134.55 470.525 3129.93 474.012 3125.83 478.934C3121.93 483.855 3118.75 490.418 3116.29 498.621C3114.04 506.824 3112.91 516.976 3112.91 529.075V547.532H3053.54C3051.69 539.534 3050.26 532.254 3049.23 525.691C3048.41 518.924 3048 512.259 3048 505.696C3048 489.905 3050.67 475.96 3056 463.86C3061.54 451.761 3069.13 441.609 3078.76 433.406C3088.61 425.203 3100.3 419.051 3113.83 414.949C3127.37 410.643 3142.24 408.489 3158.44 408.489C3179.56 408.489 3197.09 410.848 3211.04 415.564C3224.99 420.076 3236.06 426.946 3244.26 436.175C3252.67 445.403 3258.52 456.99 3261.8 470.936C3265.28 484.881 3267.03 501.185 3267.03 519.847V837H3209.19L3203.66 800.701C3195.25 812.801 3183.97 822.645 3169.82 830.232C3155.87 837.82 3139.88 841.614 3121.83 841.614ZM3156.28 781.629C3162.85 781.629 3169.2 779.988 3175.36 776.707C3181.71 773.221 3187.05 769.017 3191.35 764.095V631.512C3187.25 633.152 3182.64 635.101 3177.51 637.356C3172.38 639.612 3166.85 642.586 3160.9 646.277C3155.36 649.764 3149.93 653.968 3144.59 658.89C3139.26 663.812 3134.44 669.656 3130.14 676.424C3126.03 683.191 3122.65 690.882 3119.99 699.495C3117.52 707.903 3116.29 717.337 3116.29 727.796C3116.29 743.997 3119.47 757.02 3125.83 766.863C3132.19 776.707 3142.34 781.629 3156.28 781.629ZM3376.55 352.811C3362.19 352.811 3350.81 348.504 3342.4 339.891C3334.2 331.277 3330.1 318.665 3330.1 302.054C3330.1 292.825 3331.13 285.135 3333.18 278.982C3335.43 272.625 3338.51 267.601 3342.4 263.909C3346.51 260.013 3351.43 257.244 3357.17 255.604C3362.91 253.758 3369.48 252.835 3376.86 252.835C3392.24 252.835 3403.93 256.731 3411.93 264.524C3419.92 272.317 3423.92 284.827 3423.92 302.054C3423.92 318.05 3419.82 330.56 3411.62 339.583C3403.62 348.401 3391.93 352.811 3376.55 352.811ZM3336.25 413.411H3414.08V837H3336.25V413.411Z" fill="#301B6B"/>
<defs>
<linearGradient id="paint0_linear" x1="192.744" y1="735.241" x2="889.256" y2="333.11" gradientUnits="userSpaceOnUse">
<stop offset="0.0104167" stop-color="#307AE9"/>
<stop offset="0.166667" stop-color="#3E30E9"/>
<stop offset="0.390625" stop-color="#B11DA2"/>
<stop offset="0.619792" stop-color="#FF1818" stop-opacity="0.86"/>
<stop offset="0.8125" stop-color="#FF7F37"/>
<stop offset="0.958333" stop-color="#FF9900"/>
</linearGradient>
<linearGradient id="paint1_linear" x1="185.753" y1="663.673" x2="894.279" y2="405.791" gradientUnits="userSpaceOnUse">
<stop offset="0.0104167" stop-color="#307AE9"/>
<stop offset="0.166667" stop-color="#3E30E9"/>
<stop offset="0.390625" stop-color="#B11DA2"/>
<stop offset="0.619792" stop-color="#FF1818" stop-opacity="0.86"/>
<stop offset="0.8125" stop-color="#FF7F37"/>
<stop offset="0.958333" stop-color="#FF9900"/>
</linearGradient>
<linearGradient id="paint2_linear" x1="195.053" y1="594.346" x2="888.092" y2="472.145" gradientUnits="userSpaceOnUse">
<stop offset="0.0104167" stop-color="#307AE9"/>
<stop offset="0.166667" stop-color="#3E30E9"/>
<stop offset="0.390625" stop-color="#B11DA2"/>
<stop offset="0.619792" stop-color="#FF1818" stop-opacity="0.86"/>
<stop offset="0.8125" stop-color="#FF7F37"/>
<stop offset="0.958333" stop-color="#FF9900"/>
</linearGradient>
<linearGradient id="paint3_linear" x1="213.712" y1="533.234" x2="867.176" y2="533.234" gradientUnits="userSpaceOnUse">
<stop offset="0.0104167" stop-color="#307AE9"/>
<stop offset="0.166667" stop-color="#3E30E9"/>
<stop offset="0.390625" stop-color="#B11DA2"/>
<stop offset="0.619792" stop-color="#FF1818" stop-opacity="0.86"/>
<stop offset="0.8125" stop-color="#FF7F37"/>
<stop offset="0.958333" stop-color="#FF9900"/>
</linearGradient>
<linearGradient id="paint4_linear" x1="244.31" y1="480.915" x2="838.344" y2="585.659" gradientUnits="userSpaceOnUse">
<stop offset="0.0104167" stop-color="#307AE9"/>
<stop offset="0.166667" stop-color="#3E30E9"/>
<stop offset="0.390625" stop-color="#B11DA2"/>
<stop offset="0.619792" stop-color="#FF1818" stop-opacity="0.86"/>
<stop offset="0.8125" stop-color="#FF7F37"/>
<stop offset="0.958333" stop-color="#FF9900"/>
</linearGradient>
<linearGradient id="paint5_linear" x1="281.056" y1="439.1" x2="800.642" y2="628.214" gradientUnits="userSpaceOnUse">
<stop offset="0.0104167" stop-color="#307AE9"/>
<stop offset="0.166667" stop-color="#3E30E9"/>
<stop offset="0.390625" stop-color="#B11DA2"/>
<stop offset="0.619792" stop-color="#FF1818" stop-opacity="0.86"/>
<stop offset="0.8125" stop-color="#FF7F37"/>
<stop offset="0.958333" stop-color="#FF9900"/>
</linearGradient>
<linearGradient id="paint6_linear" x1="323.668" y1="408.175" x2="758.988" y2="659.507" gradientUnits="userSpaceOnUse">
<stop offset="0.0104167" stop-color="#307AE9"/>
<stop offset="0.166667" stop-color="#3E30E9"/>
<stop offset="0.390625" stop-color="#B11DA2"/>
<stop offset="0.619792" stop-color="#FF1818" stop-opacity="0.86"/>
<stop offset="0.8125" stop-color="#FF7F37"/>
<stop offset="0.958333" stop-color="#FF9900"/>
</linearGradient>
<linearGradient id="paint7_linear" x1="367.282" y1="388.561" x2="713.839" y2="679.357" gradientUnits="userSpaceOnUse">
<stop offset="0.0104167" stop-color="#307AE9"/>
<stop offset="0.166667" stop-color="#3E30E9"/>
<stop offset="0.390625" stop-color="#B11DA2"/>
<stop offset="0.619792" stop-color="#FF1818" stop-opacity="0.86"/>
<stop offset="0.8125" stop-color="#FF7F37"/>
<stop offset="0.958333" stop-color="#FF9900"/>
</linearGradient>
<linearGradient id="paint8_linear" x1="412.066" y1="379.318" x2="670.552" y2="687.369" gradientUnits="userSpaceOnUse">
<stop offset="0.0104167" stop-color="#307AE9"/>
<stop offset="0.166667" stop-color="#3E30E9"/>
<stop offset="0.390625" stop-color="#B11DA2"/>
<stop offset="0.619792" stop-color="#FF1818" stop-opacity="0.86"/>
<stop offset="0.8125" stop-color="#FF7F37"/>
<stop offset="0.958333" stop-color="#FF9900"/>
</linearGradient>
<linearGradient id="paint9_linear" x1="452.989" y1="382.168" x2="628.922" y2="686.893" gradientUnits="userSpaceOnUse">
<stop offset="0.0104167" stop-color="#307AE9"/>
<stop offset="0.166667" stop-color="#3E30E9"/>
<stop offset="0.390625" stop-color="#B11DA2"/>
<stop offset="0.619792" stop-color="#FF1818" stop-opacity="0.86"/>
<stop offset="0.8125" stop-color="#FF7F37"/>
<stop offset="0.958333" stop-color="#FF9900"/>
</linearGradient>
<linearGradient id="paint10_linear" x1="489.284" y1="392.822" x2="592.437" y2="676.232" gradientUnits="userSpaceOnUse">
<stop offset="0.0104167" stop-color="#307AE9"/>
<stop offset="0.166667" stop-color="#3E30E9"/>
<stop offset="0.390625" stop-color="#B11DA2"/>
<stop offset="0.619792" stop-color="#FF1818" stop-opacity="0.86"/>
<stop offset="0.8125" stop-color="#FF7F37"/>
<stop offset="0.958333" stop-color="#FF9900"/>
</linearGradient>
<linearGradient id="paint11_linear" x1="518.948" y1="410.767" x2="562.592" y2="658.281" gradientUnits="userSpaceOnUse">
<stop offset="0.0104167" stop-color="#307AE9"/>
<stop offset="0.166667" stop-color="#3E30E9"/>
<stop offset="0.390625" stop-color="#B11DA2"/>
<stop offset="0.619792" stop-color="#FF1818" stop-opacity="0.86"/>
<stop offset="0.8125" stop-color="#FF7F37"/>
<stop offset="0.958333" stop-color="#FF9900"/>
</linearGradient>
<linearGradient id="paint12_linear" x1="540.681" y1="433.994" x2="540.681" y2="635.06" gradientUnits="userSpaceOnUse">
<stop offset="0.0104167" stop-color="#307AE9"/>
<stop offset="0.166667" stop-color="#3E30E9"/>
<stop offset="0.390625" stop-color="#B11DA2"/>
<stop offset="0.619792" stop-color="#FF1818" stop-opacity="0.86"/>
<stop offset="0.8125" stop-color="#FF7F37"/>
<stop offset="0.958333" stop-color="#FF9900"/>
</linearGradient>
</defs>
</svg>
