<svg width="1024" height="1024" viewBox="0 0 1024 1024" fill="none" xmlns="http://www.w3.org/2000/svg">
<rect width="1024" height="1024" fill="url(#paint0_linear)"/>
<path opacity="0.25" d="M361.508 828.06C277.676 792.476 235.76 774.683 209.699 740.1C183.639 705.517 178.089 660.32 166.991 569.927L163.237 539.354C152.138 448.961 146.588 403.764 163.508 363.904C180.428 324.043 216.795 296.639 289.528 241.83L314.128 223.293C386.861 168.484 423.228 141.08 466.208 135.803C509.189 130.525 551.105 148.318 634.937 183.902L663.291 195.938C747.123 231.522 789.039 249.315 815.1 283.898C841.16 318.482 846.709 363.678 857.808 454.071L861.562 484.644C872.661 575.037 878.211 620.234 861.291 660.095C844.371 699.955 808.004 727.36 735.271 782.168L710.671 800.706C637.938 855.514 601.571 882.918 558.591 888.196C515.61 893.473 473.694 875.681 389.862 840.096L361.508 828.06Z" fill="url(#paint1_linear)" fill-opacity="0.55"/>
<path opacity="0.25" d="M320.714 779.759C249.108 733.258 213.305 710.008 194.875 673.836C176.444 637.664 178.678 595.032 183.147 509.769L184.658 480.932C189.127 395.668 191.361 353.037 213.471 318.99C235.582 284.943 273.619 265.562 349.693 226.8L375.423 213.69C451.497 174.928 489.534 155.547 530.075 157.672C570.616 159.797 606.419 183.047 678.025 229.549L702.243 245.276C773.849 291.778 809.652 315.028 828.082 351.2C846.513 387.372 844.279 430.004 839.81 515.267L838.299 544.104C833.83 629.368 831.596 671.999 809.486 706.046C787.375 740.093 749.338 759.474 673.264 798.236L647.534 811.346C571.46 850.108 533.423 869.489 492.882 867.364C452.341 865.239 416.538 841.989 344.932 795.487L320.714 779.759Z" fill="url(#paint2_linear)" fill-opacity="0.55"/>
<path opacity="0.25" d="M294.284 725.847C236.004 671.5 206.864 644.326 195.786 608.092C184.708 571.857 193.671 533.034 211.597 455.389L217.66 429.127C235.585 351.482 244.548 312.659 270.389 284.948C296.23 257.237 334.333 245.587 410.539 222.289L436.314 214.409C512.52 191.11 550.623 179.461 587.542 187.984C624.461 196.508 653.601 223.681 711.881 278.028L731.593 296.41C789.873 350.757 819.013 377.931 830.091 414.165C841.169 450.4 832.206 489.222 814.28 566.868L808.217 593.129C790.291 670.775 781.328 709.598 755.487 737.309C729.646 765.02 691.543 776.669 615.337 799.968L589.563 807.848C513.357 831.147 475.254 842.796 438.335 834.272C401.416 825.749 372.276 798.575 313.996 744.228L294.284 725.847Z" fill="url(#paint3_linear)" fill-opacity="0.55"/>
<path opacity="0.25" d="M277.307 672.21C232.775 613.114 210.509 583.566 206.221 548.644C201.933 513.723 216.39 479.666 245.302 411.552L255.081 388.515C283.994 320.401 298.45 286.344 326.549 265.17C354.648 243.996 391.37 239.487 464.815 230.469L489.655 227.419C563.099 218.401 599.822 213.893 632.209 227.64C664.595 241.387 686.861 270.935 731.393 330.031L746.455 350.019C790.987 409.114 813.253 438.662 817.541 473.584C821.828 508.505 807.372 542.562 778.46 610.676L768.681 633.713C739.768 701.827 725.312 735.884 697.213 757.058C669.114 778.232 632.392 782.741 558.947 791.759L534.107 794.809C460.662 803.827 423.94 808.336 391.553 794.588C359.166 780.841 336.9 751.293 292.369 692.197L277.307 672.21Z" fill="url(#paint4_linear)" fill-opacity="0.55"/>
<path opacity="0.25" d="M273.644 620.012C242.635 559.152 227.13 528.723 228.83 496.29C230.529 463.857 249.13 435.215 286.331 377.93L298.913 358.555C336.114 301.271 354.715 272.629 383.652 257.884C412.59 243.14 446.695 244.927 514.905 248.502L537.975 249.711C606.186 253.286 640.291 255.073 667.529 272.761C694.767 290.45 710.271 320.88 741.281 381.739L751.769 402.323C782.778 463.182 798.283 493.612 796.583 526.045C794.883 558.477 776.283 587.12 739.082 644.404L726.499 663.779C689.298 721.064 670.698 749.706 641.76 764.45C612.823 779.195 578.718 777.407 510.507 773.833L487.437 772.624C419.227 769.049 385.122 767.261 357.884 749.573C330.646 731.885 315.141 701.455 284.132 640.596L273.644 620.012Z" fill="url(#paint5_linear)" fill-opacity="0.55"/>
<path opacity="0.25" d="M279.121 571.718C260.815 511.842 251.662 481.903 258.359 452.896C265.056 423.888 286.406 400.992 329.108 355.2L343.55 339.713C386.251 293.921 407.602 271.025 436.072 262.321C464.542 253.617 495.046 260.659 556.053 274.744L576.687 279.508C637.694 293.592 668.198 300.635 689.971 320.938C711.744 341.242 720.897 371.18 739.203 431.056L745.394 451.308C763.7 511.184 772.853 541.122 766.156 570.13C759.459 599.138 738.109 622.033 695.407 667.825L680.965 683.313C638.263 729.104 616.913 752 588.443 760.704C559.973 769.408 529.469 762.366 468.462 748.281L447.828 743.518C386.821 729.433 356.317 722.391 334.544 702.087C312.771 681.783 303.618 651.845 285.312 591.969L279.121 571.718Z" fill="url(#paint6_linear)" fill-opacity="0.55"/>
<path opacity="0.25" d="M294.48 528.779C287.543 472.283 284.074 444.035 294.649 419.123C305.224 394.21 327.953 377.082 373.412 342.827L388.787 331.241C434.245 296.985 456.974 279.858 483.837 276.559C510.7 273.261 536.897 284.381 589.292 306.622L607.013 314.144C659.409 336.384 685.606 347.505 701.894 369.119C718.182 390.734 721.65 418.982 728.587 475.477L730.933 494.585C737.87 551.081 741.338 579.329 730.763 604.242C720.188 629.155 697.459 646.283 652.001 680.538L636.626 692.124C591.167 726.379 568.438 743.507 541.576 746.805C514.713 750.103 488.515 738.983 436.12 716.743L418.399 709.221C366.004 686.98 339.806 675.86 323.519 654.245C307.231 632.631 303.763 604.383 296.826 547.887L294.48 528.779Z" fill="url(#paint7_linear)" fill-opacity="0.55"/>
<path opacity="0.25" d="M315.897 492.847C318.578 441.689 319.919 416.11 333.185 395.682C346.451 375.253 369.273 363.625 414.918 340.368L430.356 332.502C476 309.245 498.823 297.616 523.147 298.891C547.472 300.166 568.954 314.116 611.917 342.017L626.448 351.453C669.411 379.354 690.893 393.305 701.951 415.008C713.01 436.711 711.669 462.29 708.988 513.448L708.081 530.75C705.4 581.908 704.06 607.487 690.793 627.915C677.527 648.344 654.705 659.972 609.06 683.229L593.622 691.095C547.978 714.352 525.156 725.981 500.831 724.706C476.507 723.431 455.025 709.481 412.061 681.58L397.53 672.143C354.567 644.243 333.085 630.292 322.027 608.589C310.969 586.886 312.309 561.307 314.99 510.149L315.897 492.847Z" fill="url(#paint8_linear)" fill-opacity="0.55"/>
<path opacity="0.25" d="M343.96 464.359C354.204 419.99 359.325 397.806 374.092 381.971C388.858 366.136 410.631 359.479 454.177 346.166L468.906 341.663C512.452 328.349 534.225 321.693 555.322 326.563C576.418 331.434 593.07 346.962 626.373 378.017L637.636 388.521C670.939 419.576 687.591 435.104 693.921 455.809C700.251 476.515 695.13 498.699 684.886 543.068L681.422 558.075C671.178 602.444 666.057 624.628 651.29 640.463C636.524 656.298 614.751 662.955 571.205 676.268L556.476 680.771C512.93 694.084 491.157 700.741 470.06 695.871C448.964 691 432.312 675.472 399.009 644.417L387.746 633.913C354.443 602.858 337.791 587.33 331.461 566.625C325.131 545.919 330.252 523.735 340.496 479.366L343.96 464.359Z" fill="url(#paint9_linear)" fill-opacity="0.55"/>
<path opacity="0.25" d="M374.082 446.313C389.65 409.637 397.434 391.298 412.565 379.897C427.695 368.496 447.468 366.068 487.015 361.212L500.391 359.57C539.938 354.714 559.712 352.286 577.151 359.688C594.59 367.091 606.579 383.001 630.558 414.822L638.668 425.585C662.647 457.405 674.636 473.316 676.945 492.12C679.254 510.924 671.469 529.262 655.901 565.938L650.636 578.343C635.067 615.02 627.283 633.358 612.153 644.76C597.023 656.161 577.249 658.589 537.702 663.445L524.327 665.087C484.78 669.943 465.006 672.371 447.567 664.968C430.128 657.566 418.139 641.655 394.16 609.835L386.05 599.072C362.071 567.251 350.082 551.341 347.773 532.537C345.464 513.733 353.248 495.395 368.816 458.718L374.082 446.313Z" fill="url(#paint10_linear)" fill-opacity="0.55"/>
<path opacity="0.25" d="M405.375 436.022C423.976 407.38 433.276 393.059 447.745 385.686C462.214 378.314 479.266 379.208 513.371 380.995L524.907 381.6C559.012 383.387 576.064 384.281 589.683 393.125C603.302 401.969 611.054 417.184 626.559 447.614L631.803 457.906C647.308 488.335 655.06 503.55 654.21 519.767C653.361 535.983 644.06 550.304 625.46 578.946L619.169 588.634C600.568 617.276 591.268 631.597 576.799 638.97C562.33 646.342 545.278 645.448 511.173 643.661L499.637 643.056C465.532 641.269 448.48 640.375 434.861 631.531C421.242 622.687 413.49 607.472 397.985 577.042L392.741 566.75C377.236 536.321 369.484 521.106 370.334 504.889C371.184 488.673 380.484 474.352 399.084 445.71L405.375 436.022Z" fill="url(#paint11_linear)" fill-opacity="0.55"/>
<path opacity="0.25" d="M435.5 434.237C454.909 413.423 464.614 403.016 477.555 399.059C490.496 395.103 504.361 398.304 532.092 404.706L541.471 406.872C569.202 413.274 583.067 416.475 592.964 425.704C602.861 434.933 607.021 448.541 615.342 475.757L618.156 484.962C626.477 512.179 630.638 525.787 627.594 538.972C624.549 552.158 614.845 562.565 595.435 583.379L588.87 590.419C569.46 611.233 559.756 621.641 546.815 625.597C533.874 629.553 520.009 626.352 492.278 619.95L482.899 617.785C455.168 611.383 441.303 608.182 431.406 598.953C421.509 589.724 417.349 576.116 409.028 548.899L406.214 539.694C397.893 512.478 393.732 498.869 396.776 485.684C399.82 472.499 409.525 462.092 428.935 441.277L435.5 434.237Z" fill="url(#paint12_linear)" fill-opacity="0.55"/>
<path opacity="0.25" d="M462.531 440.152C480.715 426.449 489.806 419.598 500.551 418.279C511.297 416.96 521.776 421.408 542.734 430.304L549.822 433.313C570.78 442.209 581.259 446.657 587.774 455.303C594.289 463.949 595.677 475.248 598.452 497.846L599.39 505.489C602.165 528.088 603.552 539.387 599.322 549.352C595.092 559.317 586 566.168 567.817 579.87L561.667 584.505C543.484 598.207 534.392 605.058 523.647 606.377C512.902 607.697 502.423 603.249 481.465 594.352L474.376 591.343C453.418 582.447 442.939 577.999 436.424 569.353C429.909 560.708 428.522 549.408 425.747 526.81L424.809 519.167C422.034 496.569 420.646 485.269 424.876 475.304C429.106 465.339 438.198 458.488 456.381 444.786L462.531 440.152Z" fill="url(#paint13_linear)" fill-opacity="0.55"/>
<defs>
<linearGradient id="paint0_linear" x1="855" y1="-1.53772e-05" x2="210" y2="1024" gradientUnits="userSpaceOnUse">
<stop stop-color="#FFFBEF"/>
<stop offset="1" stop-color="#F8EFFF"/>
</linearGradient>
<linearGradient id="paint1_linear" x1="185.813" y1="700.554" x2="838.986" y2="323.444" gradientUnits="userSpaceOnUse">
<stop offset="0.0104167" stop-color="#307AE9"/>
<stop offset="0.166667" stop-color="#3E30E9"/>
<stop offset="0.390625" stop-color="#B11DA2"/>
<stop offset="0.619792" stop-color="#FF1818" stop-opacity="0.86"/>
<stop offset="0.8125" stop-color="#FF7F37"/>
<stop offset="0.958333" stop-color="#FF9900"/>
</linearGradient>
<linearGradient id="paint2_linear" x1="179.259" y1="633.436" x2="843.698" y2="391.6" gradientUnits="userSpaceOnUse">
<stop offset="0.0104167" stop-color="#307AE9"/>
<stop offset="0.166667" stop-color="#3E30E9"/>
<stop offset="0.390625" stop-color="#B11DA2"/>
<stop offset="0.619792" stop-color="#FF1818" stop-opacity="0.86"/>
<stop offset="0.8125" stop-color="#FF7F37"/>
<stop offset="0.958333" stop-color="#FF9900"/>
</linearGradient>
<linearGradient id="paint3_linear" x1="187.98" y1="568.427" x2="837.897" y2="453.829" gradientUnits="userSpaceOnUse">
<stop offset="0.0104167" stop-color="#307AE9"/>
<stop offset="0.166667" stop-color="#3E30E9"/>
<stop offset="0.390625" stop-color="#B11DA2"/>
<stop offset="0.619792" stop-color="#FF1818" stop-opacity="0.86"/>
<stop offset="0.8125" stop-color="#FF7F37"/>
<stop offset="0.958333" stop-color="#FF9900"/>
</linearGradient>
<linearGradient id="paint4_linear" x1="205.479" y1="511.114" x2="818.283" y2="511.114" gradientUnits="userSpaceOnUse">
<stop offset="0.0104167" stop-color="#307AE9"/>
<stop offset="0.166667" stop-color="#3E30E9"/>
<stop offset="0.390625" stop-color="#B11DA2"/>
<stop offset="0.619792" stop-color="#FF1818" stop-opacity="0.86"/>
<stop offset="0.8125" stop-color="#FF7F37"/>
<stop offset="0.958333" stop-color="#FF9900"/>
</linearGradient>
<linearGradient id="paint5_linear" x1="234.171" y1="462.054" x2="791.242" y2="560.281" gradientUnits="userSpaceOnUse">
<stop offset="0.0104167" stop-color="#307AE9"/>
<stop offset="0.166667" stop-color="#3E30E9"/>
<stop offset="0.390625" stop-color="#B11DA2"/>
<stop offset="0.619792" stop-color="#FF1818" stop-opacity="0.86"/>
<stop offset="0.8125" stop-color="#FF7F37"/>
<stop offset="0.958333" stop-color="#FF9900"/>
</linearGradient>
<linearGradient id="paint6_linear" x1="268.63" y1="422.84" x2="755.885" y2="600.186" gradientUnits="userSpaceOnUse">
<stop offset="0.0104167" stop-color="#307AE9"/>
<stop offset="0.166667" stop-color="#3E30E9"/>
<stop offset="0.390625" stop-color="#B11DA2"/>
<stop offset="0.619792" stop-color="#FF1818" stop-opacity="0.86"/>
<stop offset="0.8125" stop-color="#FF7F37"/>
<stop offset="0.958333" stop-color="#FF9900"/>
</linearGradient>
<linearGradient id="paint7_linear" x1="308.59" y1="393.835" x2="716.823" y2="629.529" gradientUnits="userSpaceOnUse">
<stop offset="0.0104167" stop-color="#307AE9"/>
<stop offset="0.166667" stop-color="#3E30E9"/>
<stop offset="0.390625" stop-color="#B11DA2"/>
<stop offset="0.619792" stop-color="#FF1818" stop-opacity="0.86"/>
<stop offset="0.8125" stop-color="#FF7F37"/>
<stop offset="0.958333" stop-color="#FF9900"/>
</linearGradient>
<linearGradient id="paint8_linear" x1="349.493" y1="375.447" x2="674.486" y2="648.149" gradientUnits="userSpaceOnUse">
<stop offset="0.0104167" stop-color="#307AE9"/>
<stop offset="0.166667" stop-color="#3E30E9"/>
<stop offset="0.390625" stop-color="#B11DA2"/>
<stop offset="0.619792" stop-color="#FF1818" stop-opacity="0.86"/>
<stop offset="0.8125" stop-color="#FF7F37"/>
<stop offset="0.958333" stop-color="#FF9900"/>
</linearGradient>
<linearGradient id="paint9_linear" x1="391.49" y1="366.775" x2="633.892" y2="655.658" gradientUnits="userSpaceOnUse">
<stop offset="0.0104167" stop-color="#307AE9"/>
<stop offset="0.166667" stop-color="#3E30E9"/>
<stop offset="0.390625" stop-color="#B11DA2"/>
<stop offset="0.619792" stop-color="#FF1818" stop-opacity="0.86"/>
<stop offset="0.8125" stop-color="#FF7F37"/>
<stop offset="0.958333" stop-color="#FF9900"/>
</linearGradient>
<linearGradient id="paint10_linear" x1="429.866" y1="369.447" x2="594.852" y2="655.21" gradientUnits="userSpaceOnUse">
<stop offset="0.0104167" stop-color="#307AE9"/>
<stop offset="0.166667" stop-color="#3E30E9"/>
<stop offset="0.390625" stop-color="#B11DA2"/>
<stop offset="0.619792" stop-color="#FF1818" stop-opacity="0.86"/>
<stop offset="0.8125" stop-color="#FF7F37"/>
<stop offset="0.958333" stop-color="#FF9900"/>
</linearGradient>
<linearGradient id="paint11_linear" x1="463.905" y1="379.44" x2="560.639" y2="645.216" gradientUnits="userSpaceOnUse">
<stop offset="0.0104167" stop-color="#307AE9"/>
<stop offset="0.166667" stop-color="#3E30E9"/>
<stop offset="0.390625" stop-color="#B11DA2"/>
<stop offset="0.619792" stop-color="#FF1818" stop-opacity="0.86"/>
<stop offset="0.8125" stop-color="#FF7F37"/>
<stop offset="0.958333" stop-color="#FF9900"/>
</linearGradient>
<linearGradient id="paint12_linear" x1="491.721" y1="396.272" x2="532.649" y2="628.385" gradientUnits="userSpaceOnUse">
<stop offset="0.0104167" stop-color="#307AE9"/>
<stop offset="0.166667" stop-color="#3E30E9"/>
<stop offset="0.390625" stop-color="#B11DA2"/>
<stop offset="0.619792" stop-color="#FF1818" stop-opacity="0.86"/>
<stop offset="0.8125" stop-color="#FF7F37"/>
<stop offset="0.958333" stop-color="#FF9900"/>
</linearGradient>
<linearGradient id="paint13_linear" x1="512.099" y1="418.051" x2="512.099" y2="606.606" gradientUnits="userSpaceOnUse">
<stop offset="0.0104167" stop-color="#307AE9"/>
<stop offset="0.166667" stop-color="#3E30E9"/>
<stop offset="0.390625" stop-color="#B11DA2"/>
<stop offset="0.619792" stop-color="#FF1818" stop-opacity="0.86"/>
<stop offset="0.8125" stop-color="#FF7F37"/>
<stop offset="0.958333" stop-color="#FF9900"/>
</linearGradient>
</defs>
</svg>
